/* XPM */
static char *afunda[] = {
/* columns rows colors chars-per-pixel */
"30 30 165 2 ",
"   c #7A6A5E",
".  c #6C7354",
"X  c #6F715B",
"o  c #7A7152",
"O  c #78705D",
"+  c #7A6E62",
"@  c #7F6669",
"#  c #7B686E",
"$  c #6E7D60",
"%  c #697D6C",
"&  c #75736C",
"*  c #7D6C75",
"=  c #746D7D",
"-  c #6E7A76",
";  c #757B74",
":  c #787F77",
">  c #77747B",
",  c #7C737D",
"<  c #747B79",
"1  c #797979",
"2  c #975B5D",
"3  c #816B5D",
"4  c #8E5F67",
"5  c #8D5F6A",
"6  c #935E63",
"7  c #945D6C",
"8  c #9A5A6C",
"9  c #8E5D72",
"0  c #975774",
"q  c #9F5673",
"w  c #915C70",
"e  c #995B74",
"r  c #935E7A",
"t  c #985B7A",
"y  c #A35A75",
"u  c #A15C78",
"i  c #8A6563",
"p  c #826C61",
"a  c #886865",
"s  c #83646C",
"d  c #8C606E",
"f  c #85686D",
"g  c #8C6968",
"h  c #9B6064",
"j  c #95626B",
"k  c #937F6F",
"l  c #8D6074",
"z  c #846A75",
"x  c #8A677F",
"c  c #846F7C",
"v  c #8D6D7D",
"b  c #916174",
"n  c #90617C",
"m  c #9C657B",
"M  c #92697F",
"N  c #817373",
"B  c #8C707E",
"V  c #5C995C",
"C  c #6A965E",
"Z  c #639C5C",
"A  c #6A9C5F",
"S  c #72985F",
"D  c #5E9E62",
"F  c #648266",
"G  c #708F65",
"H  c #7C8F66",
"J  c #6B9564",
"K  c #659D62",
"L  c #6B9A63",
"P  c #649669",
"I  c #6A946A",
"U  c #649C6C",
"Y  c #6B9B6A",
"T  c #759364",
"R  c #7A9364",
"E  c #739A65",
"W  c #75956B",
"Q  c #79926F",
"!  c #71996C",
"~  c #789A68",
"^  c #6E8774",
"/  c #768775",
"(  c #7D8E72",
")  c #738F78",
"_  c #7C8F7B",
"`  c #6D9574",
"'  c #6C9A71",
"]  c #729174",
"[  c #7A9274",
"{  c #739875",
"}  c #75957D",
"|  c #78917B",
" . c #64A165",
".. c #6CA065",
"X. c #67A06B",
"o. c #68A16A",
"O. c #848C67",
"+. c #8B8B67",
"@. c #8A846A",
"#. c #868B6B",
"$. c #8E886E",
"%. c #81936C",
"&. c #88906B",
"*. c #888772",
"=. c #838D72",
"-. c #82877B",
";. c #8B8279",
":. c #938474",
">. c #918974",
",. c #819073",
"<. c #7C6E84",
"1. c #7E6F8A",
"2. c #767483",
"3. c #7B7284",
"4. c #7B7986",
"5. c #7E748A",
"6. c #777988",
"7. c #7F6D93",
"8. c #826786",
"9. c #8D6482",
"0. c #846E85",
"q. c #8B6B85",
"w. c #8F678A",
"e. c #846D8C",
"r. c #8C6A8B",
"t. c #956485",
"y. c #986785",
"u. c #9A6B82",
"i. c #9A6489",
"p. c #936B8C",
"a. c #837183",
"s. c #897284",
"d. c #85718C",
"f. c #89718C",
"g. c #846E92",
"h. c #886C93",
"j. c #857194",
"k. c #8C7494",
"l. c #7E8B83",
"z. c #BEBEBE",
"x. c #C1BDB4",
"c. c #C4BFBD",
"v. c #BEC2BE",
"b. c #C1C1B7",
"n. c #C2C3BE",
"m. c #C3BDC4",
"M. c #CBBCC5",
"N. c #C4BDCB",
"B. c #CBBCCB",
"V. c #D6B6C5",
"C. c #D2B7C8",
"Z. c #CBBDD2",
"A. c #CABBD8",
"S. c #BEC3C4",
"D. c #BFC8C7",
"F. c #C3C3C4",
"G. c #CAC3C4",
"H. c #C2C9C4",
"J. c #C8C9C4",
"K. c #C4C3CA",
"L. c #CAC3CA",
"P. c #C4C8CB",
"I. c #C7C3D2",
"U. c #CCC1D2",
"Y. s None	c None",
/* pixels */
"Y.Y.Y.Y.Y.Y.Y.Y.Y.Y.Y.Y.Y.Y.Y.Y.Y.Y.Y.Y.Y.Y.Y.Y.Y.Y.Y.Y.Y.Y.",
"Y.Y.Y.Y.Y.Y.Y.Y.Y.Y.Y.Y.Y.Y.Y.Y.Y.Y.Y.Y.Y.Y.Y.Y.Y.Y.Y.Y.Y.Y.",
"Y.Y.Y.Y.Y.Y.Y.Y.Y.Y.Y.Y.Y.Y.Y.Y.Y.Y.Y.Y.Y.Y.Y.Y.Y.Y.Y.Y.Y.Y.",
"Y.Y.Y.Y.Y.Y.Y.Y.Y.Y.Y.Y.Y.Y.Y.Y.M.N.F.z.Y.H.K.Y.Y.Y.Y.Y.Y.Y.",
"Y.Y.Y.Y.Y.Y.Y.Y.Y.Y.Y.Y.F.n.n.J.N.U.Z.Z.I.m.N.F.n.G.Y.Y.Y.Y.",
"Y.Y.Y.Y.Y.Y.Y.L.G.G.c.M.m.G.M.M.s.q.q.w.q.s.B.G.n.x.Y.Y.Y.Y.",
"Y.Y.Y.Y.Y.F.B.K.K.N.V.u.v M l m 8 8 y y q 0 u.C.G.J.n.Y.Y.Y.",
"Y.Y.Y.Y.F.F.B.0.c B b w 9 b d j h 2 6 6 2 j d v C.M.c.G.Y.Y.",
"Y.Y.Y.S.P.B.w.y.e 8 7 4 i p O $.o +.H R R &.  f v M.F.H.F.Y.",
"Y.Y.Y.S.F.B.t.t 8 6 g :.>.#.H R T T L ..Z E ,.;.* , L.S.F.Y.",
"Y.Y.v.F.N.a.u.7 3 O.,.Q G J L Y Y J P Y K I ' ] l.< S.S.D.Y.",
"Y.F.F.G.<.q.d i O.~ I ` { { ` ` ` } ^ | F ' P ' ] % H.S.S.Y.",
"G.K.P.M.p.n i :.R C ! | < 2.2.2.6.2.0.* ; F U K W $ b.c.F.Y.",
"S.m.m.s.t.r g $.E Z Y ^ = j.j.j.7.g.q.z -.` X.K G ,.& G.F.S.",
"n.F.Z.0.9.t.5 k E Z P ` 4.e.1.5.j.d.N X W L D U ' _ 1 L.c.F.",
"n.G.N.0.r.t.w a T K  .' - 4.l.< 2.> =.T S  . .' ) ; > K.N.N.",
"Y.G.K.U.e.9.u 6 O.E A K I { J ! F ) J ..Z K Y | ; a.M.L.G.Y.",
"Y.F.S.N.e.p.e d . E A A o.U L C E Y Y J E [ / : , a.B.K.m.Y.",
"Y.n.S.N.d.w.t.x Q Z V  .V J %.%.J J [ -.# z a.5.5.N.K.F.Y.Y.",
"Y.S.D.P.0.w.t.v ,.~ E J ' [ + O ,.( & s.p.w.e.1.N.N.S.Y.Y.Y.",
"Y.S.F.F.U.q.m 8 i k @.*.& c 9 b s z q.8.h.g.2.K.F.H.Y.Y.Y.Y.",
"Y.Y.v.n.m.M.e 8 8 4 a @ s.w.i.i.y.9.8.k.1.1.N.S.n.n.Y.Y.Y.Y.",
"Y.Y.Y.v.J.M.x r r n q.f.e.r.w.w.w.f.1.N.N.F.P.F.z.Y.Y.Y.Y.Y.",
"Y.Y.Y.Y.n.B.f.r.w.p.e.e.A.a.0.0.e.e.N.G.F.n.n.Y.Y.Y.Y.Y.Y.Y.",
"Y.Y.Y.Y.B.f.e.h.h.h.1.Z.N.m.L.m.Z.N.G.m.Y.Y.Y.Y.Y.Y.Y.Y.Y.Y.",
"Y.Y.Y.Y.B.d.g.g.g.A.Y.Y.K.P.S.F.F.G.F.Y.Y.Y.Y.Y.Y.Y.Y.Y.Y.Y.",
"Y.Y.Y.K.Z.3.<.5.N.N.Y.Y.Y.Y.Y.P.S.Y.Y.Y.Y.Y.Y.Y.Y.Y.Y.Y.Y.Y.",
"Y.Y.m.m.K.m.F.S.m.Y.Y.Y.Y.Y.Y.Y.Y.Y.Y.Y.Y.Y.Y.Y.Y.Y.Y.Y.Y.Y.",
"Y.Y.F.F.v.F.z.Y.Y.Y.Y.Y.Y.Y.Y.Y.Y.Y.Y.Y.Y.Y.Y.Y.Y.Y.Y.Y.Y.Y.",
"Y.Y.Y.F.n.Y.Y.Y.Y.Y.Y.Y.Y.Y.Y.Y.Y.Y.Y.Y.Y.Y.Y.Y.Y.Y.Y.Y.Y.Y."
};
