/* XPM */
static char *barco_esq[] = {
/* columns rows colors chars-per-pixel */
"30 30 144 2 ",
"   c #020001",
".  c #000300",
"X  c #040000",
"o  c #010005",
"O  c #040406",
"+  c #080000",
"@  c #0C0000",
"#  c #070C08",
"$  c #130000",
"%  c #150000",
"&  c #120500",
"*  c #160400",
"=  c #160700",
"-  c #1A0000",
";  c #1E0200",
":  c #1A0500",
">  c #1E0600",
",  c #150A00",
"<  c #120E0D",
"1  c #120F18",
"2  c #131112",
"3  c #220100",
"4  c #240100",
"5  c #210400",
"6  c #250500",
"7  c #280000",
"8  c #2D0000",
"9  c #260900",
"0  c #2B0900",
"q  c #2F2F31",
"w  c #332F30",
"e  c #64605F",
"r  c #AE7856",
"t  c #AE7E56",
"y  c #A27C58",
"u  c #A27B5E",
"i  c #AF7859",
"p  c #A8795F",
"a  c #AC795E",
"s  c #AB7E5D",
"d  c #AF7D5C",
"f  c #B17751",
"g  c #B67754",
"h  c #B67B53",
"j  c #B07A56",
"k  c #B57955",
"l  c #B57B55",
"z  c #B07C54",
"x  c #B87956",
"c  c #BA7C57",
"v  c #B47758",
"b  c #B17958",
"n  c #B67B59",
"m  c #B47C59",
"M  c #B27B5C",
"N  c #B67B5D",
"B  c #B27D5D",
"V  c #B57C5E",
"C  c #BB7B58",
"Z  c #B87E59",
"A  c #B87D5D",
"S  c #9E7E67",
"D  c #987D6C",
"F  c #997F72",
"G  c #9D7F74",
"H  c #9D7F77",
"J  c #A57B63",
"K  c #A57D63",
"L  c #A17B66",
"P  c #A77864",
"I  c #AA7B61",
"U  c #AC7A61",
"Y  c #A87F63",
"T  c #AE7C61",
"R  c #AA7B67",
"E  c #AB7E67",
"W  c #AC7C65",
"Q  c #AC7E67",
"!  c #A67B68",
"~  c #A47E69",
"^  c #A47E6B",
"/  c #A67C6E",
"(  c #A87F6B",
")  c #AC7F68",
"_  c #AA7A6E",
"`  c #B37B60",
"'  c #B27A63",
"]  c #B07D60",
"[  c #B77E60",
"{  c #B17D65",
"}  c #B67E65",
"|  c #B67C68",
" . c #A37F73",
".. c #FFF200",
"X. c #AC855E",
"o. c #B28158",
"O. c #BD815F",
"+. c #9E846B",
"@. c #9D826F",
"#. c #9F836E",
"$. c #998175",
"%. c #9D8277",
"&. c #9D867E",
"*. c #AC8063",
"=. c #A98265",
"-. c #AF8167",
";. c #A7816A",
":. c #A3806C",
">. c #A1826D",
",. c #A3826F",
"<. c #A4816E",
"1. c #AA8068",
"2. c #AD806B",
"3. c #A9806E",
"4. c #A9836E",
"5. c #A8846E",
"6. c #B28161",
"7. c #B28661",
"8. c #B38264",
"9. c #B48664",
"0. c #BB8563",
"q. c #B1816A",
"w. c #B1836C",
"e. c #A18270",
"r. c #A68171",
"t. c #A68772",
"y. c #A08574",
"u. c #A88370",
"i. c #A98273",
"p. c #AB8A77",
"a. c #B08670",
"s. c #988780",
"d. c #C4BEBE",
"f. c #BDC2BC",
"g. c #C4C0BD",
"h. c #C2C4C1",
"j. c #C5C3C6",
"k. c #CAC1C2",
"l. c #C9C5C2",
"z. c #CCC6C6",
"x. c #C7C9C6",
"c. c #C9C4C8",
"v. c #C9C7CC",
"b. s None	c None",
/* pixels */
"b.b.b.b.b.b.b.b.b.b.b.b.b.b.b.b.b.b.b.b.b.b.b.b.b.b.b.b.b.b.",
"b.b.b.b.b.b.b.b.b.b.b.b.b.b.b.b.b.b.b.b.b.b.b.b.b.< w b.b.b.",
"b.b.b.b.b.b.b.b.b.b.b.b.b.b.b.b.b.b.b.b.b.b.b.b.X k.< e b.b.",
"b.b.b.b.b.b.b.b.b.b.b.b.b.b.b.b.b.b.b.b.b.b.b.  l.d.z.X b.b.",
"b.b.b.b.b.b.b.b.b.b.b.b.b.b.b.b.b.b.b.b.b.b.b.  j.v.  b.b.b.",
"b.b.b.b.b.b.b.b.b.b.b.b.b.b.b.b.b.b.b.b.b.b.b.      b.b.b.b.",
"b.b.b.b.b.b.b.b.b.b.b.b.b.b.b.b.b.b.b.b.b.b.  b.b.b.b.b.b.b.",
"b.b.b.b.b.b.b.b.b.b.b.b.b.b.b.b.b.b.b.b.b.  b.b.b.b.b.b.b.b.",
"b.b.b.b.b.b.b.b.b.b.b.b.b.b.b.+ % @ & @ % b.b.b.b.b.b.b.b.b.",
"b.b.b.b.b.b.b.b.b.b.b.b.@ % $ &.%.%.$.- G ; % + b.b.b.b.b.b.",
"b.b.b.b.b.b.b.b.b.b.b.% r.5.<.r.i.u.4 3.R ) ^ ,.- $ b.b.b.b.",
"b.b.b.b.b.b.b.b.b.@ - u.1.I E ! a.4 8.( M [ s =.u.%.+ b.b.b.",
"b.b.b.b.b.b.b.@ @ @.;.p [ ` 2.3.7 a.u s O.g j 6.P  .$ b.b.b.",
"b.b.b.b.b.b.$ D ;.E T V N ` L 3 ,.0 ; X.f x Z i q./ $ b.b.b.",
"b.b.b.b.$ - ^ q.[ b A V V Y - % = ....9 j c Z r } ! - b.b.b.",
"b.b.b.X s.G 3.` v C x n B =.% + , ....> o.h l b } 2.% b.b.b.",
"b.b.b.b.+ $ ,.1.T b A n M ) - @ = ....6 t x l n | _ ; b.b.b.",
"b.b.b.b.b.b.% @.;.-.] 6.N W D : +.5 3 y 0.l l V ` ( - b.b.b.",
"b.b.b.b.b.b.b.$ % e.( I [ ` 2.3.4 =.7.t m V V B 8.3.$ b.b.b.",
"b.b.b.b.b.b.b.b.b.$ ; 3.P { P w.W 8 s 9.a U K K 1.D X b.b.b.",
"b.b.b.b.b.b.b.b.b.b.b.- p.^ 3.J *.1.3 ,.5.3.,.#.% = b.b.b.b.",
"b.b.b.b.b.b.b.b.b.b.b.b.@ % ; e.S t.F ; $.- = & b.b.b.b.b.b.",
"b.b.b.b.b.b.b.b.b.b.b.b.b.b.b.@ $ + @ + @ b.b.b.b.b.b.b.b.b.",
"b.b.b.b.b.b.b.b.b.b.b.b.b.b.b.b.b.b.b.b.b.O b.b.b.b.b.b.b.b.",
"b.b.b.b.b.b.b.b.b.b.b.b.b.b.b.b.b.b.b.b.b.b.  b.b.b.b.b.b.b.",
"b.b.b.b.b.b.b.b.b.b.b.b.b.b.b.b.b.b.b.b.b.b.b.  #   b.b.b.b.",
"b.b.b.b.b.b.b.b.b.b.b.b.b.b.b.b.b.b.b.b.b.b.b.  f.f.  b.b.b.",
"b.b.b.b.b.b.b.b.b.b.b.b.b.b.b.b.b.b.b.b.b.b.b.  x.h.g.  b.b.",
"b.b.b.b.b.b.b.b.b.b.b.b.b.b.b.b.b.b.b.b.b.b.b.b.o v.2   b.b.",
"b.b.b.b.b.b.b.b.b.b.b.b.b.b.b.b.b.b.b.b.b.b.b.b.b.1 q b.b.b."
};
