/* XPM */
static char *barco_cima[] = {
/* columns rows colors chars-per-pixel */
"30 30 140 2 ",
"   c #000201",
".  c #040000",
"X  c #020401",
"o  c #010005",
"O  c #040406",
"+  c #090000",
"@  c #0D0000",
"#  c #0E0200",
"$  c #070C08",
"%  c #130000",
"&  c #110300",
"*  c #160000",
"=  c #160400",
"-  c #160700",
";  c #1A0100",
":  c #1E0200",
">  c #180501",
",  c #1E0600",
"<  c #120E0D",
"1  c #150C0D",
"2  c #120F18",
"3  c #131112",
"4  c #220000",
"5  c #240100",
"6  c #210400",
"7  c #250500",
"8  c #2A0000",
"9  c #2D0000",
"0  c #260900",
"q  c #2B0900",
"w  c #2F2F31",
"e  c #332F30",
"r  c #64605F",
"t  c #AE7856",
"y  c #A27C58",
"u  c #A27B5E",
"i  c #AF7859",
"p  c #A8795F",
"a  c #AC795E",
"s  c #AB7E5D",
"d  c #AF7D5C",
"f  c #B17751",
"g  c #B67754",
"h  c #B67B53",
"j  c #B07A56",
"k  c #B57B55",
"l  c #B07C54",
"z  c #BA7A54",
"x  c #B87956",
"c  c #BA7C57",
"v  c #B47758",
"b  c #B27A59",
"n  c #B67B59",
"m  c #B47C5B",
"M  c #B27B5C",
"N  c #B67B5D",
"B  c #B27D5D",
"V  c #B77F5E",
"C  c #BB7B58",
"Z  c #B87E58",
"A  c #B87D5D",
"S  c #9E7E67",
"D  c #997C6C",
"F  c #987D6C",
"G  c #9D7F74",
"H  c #A57B63",
"J  c #A57D63",
"K  c #A77864",
"L  c #AC7A61",
"P  c #AC7A63",
"I  c #A97D62",
"U  c #AE7C61",
"Y  c #A87E65",
"T  c #AC7E67",
"R  c #A67B68",
"E  c #A67B6A",
"W  c #A47E6B",
"Q  c #A67C6E",
"!  c #A87F6B",
"~  c #AC7F68",
"^  c #AA7A6E",
"/  c #AA7C6D",
"(  c #B17B61",
")  c #B77E60",
"_  c #B67F61",
"`  c #B47C63",
"'  c #B67D62",
"]  c #B17D65",
"[  c #B67E65",
"{  c #B37F69",
"}  c #B67C68",
"|  c #A37F73",
" . c #FFF200",
".. c #AC805D",
"X. c #AC855E",
"o. c #B28158",
"O. c #BD815F",
"+. c #9D826F",
"@. c #9F836E",
"#. c #998175",
"$. c #9D8277",
"%. c #9C8178",
"&. c #9D867E",
"*. c #A28067",
"=. c #AC8063",
"-. c #AC8365",
";. c #AF8167",
":. c #A68069",
">. c #A3826F",
",. c #A7816C",
"<. c #A1856F",
"1. c #AA8068",
"2. c #AB806D",
"3. c #AD806D",
"4. c #B28161",
"5. c #B28661",
"6. c #B38264",
"7. c #B48664",
"8. c #BB8563",
"9. c #B1816A",
"0. c #B1836C",
"q. c #A68171",
"w. c #A68772",
"e. c #A98273",
"r. c #AB8A77",
"t. c #A08478",
"y. c #B18471",
"u. c #B08670",
"i. c #988780",
"p. c #C4BEBE",
"a. c #BDC2BC",
"s. c #C0C5BF",
"d. c #C2C4C1",
"f. c #C5C3C6",
"g. c #C9C5C2",
"h. c #CCC6C6",
"j. c #C7C9C6",
"k. c #C9C4C8",
"l. c #C9C7CC",
"z. s None	c None",
/* pixels */
"z.z.z.z.z.z.z.z.z.z.z.z.z.z.z.z.z.z.z.z.z.z.z.z.z.z.z.z.z.z.",
"z.z.z.z.z.z.z.z.z.z.z.z.z.z.z.z.z.z.z.z.z.z.z.z.z.z.z.z.z.z.",
"z.z.z.z.z.z.z.z.z.z.z.z.z.z.z.z.z.z.z.z.z.z.z.z.z.z.z.z.z.z.",
"z.z.z.z.z.z.z.z.z.z.z.z.z.z.. z.z.z.z.z.z.z.z.z.z.z.z.z.z.z.",
"z.z.z.z.z.z.z.z.z.z.z.z.z.+ i.% z.z.z.z.z.z.z.z.z.z.z.z.z.z.",
"z.z.z.z.z.z.z.z.z.z.z.z.z.% G ; z.z.z.z.z.z.z.z.z.z.z.z.z.z.",
"z.z.z.z.z.z.z.z.z.z.z.z.% >.2.W % z.z.z.z.z.z.z.z.z.z.z.z.z.",
"z.z.z.z.z.z.z.z.z.z.z.% @.1.( 9.F # z.z.z.z.z.z.z.z.z.z.z.z.",
"z.z.z.z.z.z.z.z.z.z.z.* :.U v 4.>.% z.z.z.z.z.z.z.z.z.z.z.z.",
"z.z.z.z.z.z.z.z.z.z.* @.;.b C v Y @.+ z.z.z.z.z.z.z.z.z.z.z.",
"z.z.z.z.z.z.z.z.z.z.; ! s O.x A P :.; z.z.z.z.z.z.z.z.z.z.z.",
"z.z.z.z.z.z.z.z.z.* 2.P _ v n A A p q.* z.z.z.z.z.z.z.z.z.z.",
"z.z.z.z.z.z.z.z.# r.P 6._ b B M N _ ~ <.# z.z.z.z.z.z.z.z.z.",
"z.z.z.z.z.z.z.z.* W ` ( P ! 1.I U ` P / * z.z.z.z.z.z.z.z.z.",
"z.z.z.z.z.z.z.z.: / P 3.D = * ; S ;.~ 1.% z.z.z.z.z.z.z.z.z.",
"z.z.z.z.z.z.z.+ >.J 0.1.> # + * 4 ^ E q.&.  z.z.z.z.z.z.z.z.",
"z.z.z.z.z.z.z.% S =.J 5 <.= - - <.5 u.e.%.# z.z.z.z.z.z.z.z.",
"z.z.z.z.z.z.z.+ w.;.9 I 6  . . .q u.8 w.$.% z.z.z.z.z.z.z.z.",
"z.z.z.z.z.z.z.# #.4 ..7.:  . . .4 u 1.4 #.# z.z.z.z.z.z.z.z.",
"z.z.z.z.z.z.z.+ : >.7.j y 7 , 0 X.s 6./ ; # z.z.z.z.z.z.z.z.",
"z.z.z.z.z.z.z.# #.2.a B 8.l o.l f 8.a P $.% z.z.z.z.z.z.z.z.",
"z.z.z.z.z.z.O z.> :.P o.h Z h Z z g V Y : z.  z.z.z.z.z.z.z.",
"z.z.z.z.z.  z.z.= >.Y o.x k x Z c k s W % z.z.  z.z.z.z.z.z.",
"z.z.      z.z.z.% $.J d A v M t i 4.-.<.# z.z.z.      z.z.z.",
"z.O j.a.$ z.z.z.z.* 1.6.( } _ [ { K / * z.z.z.z.  f.g.. z.z.",
"2 l.d.a.  z.z.z.z.> D >./ ^ ^ E Q | $.% z.z.z.z.  k.p.g.< z.",
"w 3 p.  z.z.z.z.z.z.+ * ; : * * % % + z.z.z.z.z.z.. h.1 e z.",
"z.    z.z.z.z.z.z.z.z.z.z.z.z.z.z.z.z.z.z.z.z.z.z.z.. r z.z.",
"z.z.z.z.z.z.z.z.z.z.z.z.z.z.z.z.z.z.z.z.z.z.z.z.z.z.z.z.z.z.",
"z.z.z.z.z.z.z.z.z.z.z.z.z.z.z.z.z.z.z.z.z.z.z.z.z.z.z.z.z.z."
};
