/* XPM */
static char *barco_dir[] = {
/* columns rows colors chars-per-pixel */
"30 30 134 2 ",
"   c black",
".  c #050000",
"X  c #020401",
"o  c #010005",
"O  c #040406",
"+  c #0B0000",
"@  c #0D0000",
"#  c #070C08",
"$  c #110200",
"%  c #150200",
"&  c #120500",
"*  c #160700",
"=  c #180200",
"-  c #1C0100",
";  c #1A0500",
":  c #1E0600",
">  c #150A00",
",  c #120E0D",
"<  c #150C0D",
"1  c #120F18",
"2  c #131112",
"3  c #220100",
"4  c #250000",
"5  c #210400",
"6  c #250500",
"7  c #280000",
"8  c #2D0000",
"9  c #260900",
"0  c #2B0900",
"q  c #2F2F31",
"w  c #332F30",
"e  c #64605F",
"r  c #AE7856",
"t  c #AE7E56",
"y  c #A27C58",
"u  c #A27B5E",
"i  c #AF7859",
"p  c #A8795F",
"a  c #AC795E",
"s  c #AB7E5D",
"d  c #AF7D5C",
"f  c #B17751",
"g  c #B67754",
"h  c #B67B53",
"j  c #B07A56",
"k  c #B57B55",
"l  c #BA7A54",
"z  c #B87956",
"x  c #BA7C57",
"c  c #B47758",
"v  c #B1785B",
"b  c #B57A58",
"n  c #B47C59",
"m  c #B47C5B",
"M  c #B37C5D",
"N  c #B67E5D",
"B  c #B57C5E",
"V  c #B87E58",
"C  c #B87E59",
"Z  c #B87D5D",
"A  c #997C6C",
"S  c #9A7F74",
"D  c #9D7F77",
"F  c #A57B63",
"G  c #A57D63",
"H  c #A17B66",
"J  c #A77864",
"K  c #AC7A61",
"L  c #A87F63",
"P  c #AE7C61",
"I  c #AA7B67",
"U  c #A87E65",
"Y  c #AB7D66",
"T  c #A67B6A",
"R  c #A47E6B",
"E  c #A67C6E",
"W  c #A87F6B",
"Q  c #AC7F68",
"!  c #AA7A6E",
"~  c #AA7C6D",
"^  c #B37B60",
"/  c #B27A63",
"(  c #B77E60",
")  c #B47C63",
"_  c #B67D62",
"`  c #B17D65",
"'  c #B67E65",
"]  c #B67C68",
"[  c #A37F73",
"{  c #FFF200",
"}  c #AE805F",
"|  c #B28158",
" . c #9E846B",
".. c #9D826F",
"X. c #9F836E",
"o. c #998175",
"O. c #9D8277",
"+. c #9C8178",
"@. c #9D867E",
"#. c #A28067",
"$. c #A98265",
"%. c #AC8365",
"&. c #A4816B",
"*. c #A3806C",
"=. c #A1826D",
"-. c #A7816C",
";. c #A1856F",
":. c #A88369",
">. c #A9836E",
",. c #AD806D",
"<. c #B28161",
"1. c #B38264",
"2. c #B48664",
"3. c #BB8563",
"4. c #B1816A",
"5. c #A48370",
"6. c #A68772",
"7. c #A08574",
"8. c #A88170",
"9. c #AB8A77",
"0. c #B08670",
"q. c #988780",
"w. c #C4BEBE",
"e. c #BDC2BC",
"r. c #C4C0BD",
"t. c #C2C4C1",
"y. c #C5C3C6",
"u. c #CAC1C2",
"i. c #C9C5C2",
"p. c #CCC6C6",
"a. c #C7C9C6",
"s. c #C9C4C8",
"d. c #C9C7CC",
"f. s None	c None",
/* pixels */
"f.f.f.q 1 f.f.f.f.f.f.f.f.f.f.f.f.f.f.f.f.f.f.f.f.f.f.f.f.f.",
"f.f.  2 d.o f.f.f.f.f.f.f.f.f.f.f.f.f.f.f.f.f.f.f.f.f.f.f.f.",
"f.f.  r.t.a.  f.f.f.f.f.f.f.f.f.f.f.f.f.f.f.f.f.f.f.f.f.f.f.",
"f.f.f.  t.e.  f.f.f.f.f.f.f.f.f.f.f.f.f.f.f.f.f.f.f.f.f.f.f.",
"f.f.f.f.  # X f.f.f.f.f.f.f.f.f.f.f.f.f.f.f.f.f.f.f.f.f.f.f.",
"f.f.f.f.f.f.f.  f.f.f.f.f.f.f.f.f.f.f.f.f.f.f.f.f.f.f.f.f.f.",
"f.f.f.f.f.f.f.f.O f.f.f.f.f.f.f.f.f.f.f.f.f.f.f.f.f.f.f.f.f.",
"f.f.f.f.f.f.f.f.f.@ + @ + $ @ f.f.f.f.f.f.f.f.f.f.f.f.f.f.f.",
"f.f.f.f.f.f.$ % = S = o.6.#.X.- % @ f.f.f.f.f.f.f.f.f.f.f.f.",
"f.f.f.f.; % 7.=.>.>.*.3 %.P F >.T 9.= f.f.f.f.f.f.f.f.f.f.f.",
"f.f.f.+ A :.G $.K a 2.s 8 Y 4.K ` I >.- % f.f.f.f.f.f.f.f.f.",
"f.f.f.$ -.1.d B B m t 2.L 4 >.W / ( K T X.% $ f.f.f.f.f.f.f.",
"f.f.f.= W / B k k 3.y - 5  .; A I B Z ` 1.-.*.$ f.f.f.f.f.f.",
"f.f.f.- ! ' b k x j 6 { { * @ = Q d m | d P :.*.$ + f.f.f.f.",
"f.f.f.% ,.) m h h | : { { > @ % U M k g z c ) >.D q.. f.f.f.",
"f.f.f.= T ' r V x j 9 { { ; % = Y B Z B B Z 4.T - @ f.f.f.f.",
"f.f.f.$ E ] i V l f d = 0 -.3 H ^ B B K Y &.A % f.f.f.f.f.f.",
"f.f.f.$ [ J <.r h 3.d u 0.4 >.! B ) p :...@ @ f.f.f.f.f.f.f.",
"f.f.f.+ O.>.$.<.) v 1.:.7 0.T Q K Q 8.= + f.f.f.f.f.f.f.f.f.",
"f.f.f.f.% * X.H Y I 8.4 8.8.8.>.>.5.% f.f.f.f.f.f.f.f.f.f.f.",
"f.f.f.f.f.f.@ $ - D = o.O.O.@.$ $ @ f.f.f.f.f.f.f.f.f.f.f.f.",
"f.f.f.f.f.f.f.f.f.% @ & @ $ + f.f.f.f.f.f.f.f.f.f.f.f.f.f.f.",
"f.f.f.f.f.f.f.f.  f.f.f.f.f.f.f.f.f.f.f.f.f.f.f.f.f.f.f.f.f.",
"f.f.f.f.f.f.f.  f.f.f.f.f.f.f.f.f.f.f.f.f.f.f.f.f.f.f.f.f.f.",
"f.f.f.f.      f.f.f.f.f.f.f.f.f.f.f.f.f.f.f.f.f.f.f.f.f.f.f.",
"f.f.f.  s.y.  f.f.f.f.f.f.f.f.f.f.f.f.f.f.f.f.f.f.f.f.f.f.f.",
"f.f.. p.w.i.  f.f.f.f.f.f.f.f.f.f.f.f.f.f.f.f.f.f.f.f.f.f.f.",
"f.f.e < u.. f.f.f.f.f.f.f.f.f.f.f.f.f.f.f.f.f.f.f.f.f.f.f.f.",
"f.f.f.w , f.f.f.f.f.f.f.f.f.f.f.f.f.f.f.f.f.f.f.f.f.f.f.f.f.",
"f.f.f.f.f.f.f.f.f.f.f.f.f.f.f.f.f.f.f.f.f.f.f.f.f.f.f.f.f.f."
};
