/* XPM */
static char *barco_baixo[] = {
/* columns rows colors chars-per-pixel */
"30 30 141 2 ",
"   c #000100",
".  c #050000",
"X  c #020401",
"o  c #010005",
"O  c #040406",
"+  c #0A0000",
"@  c #0C0000",
"#  c #070C08",
"$  c #130000",
"%  c #160000",
"&  c #120500",
"*  c #170600",
"=  c #180200",
"-  c #1E0100",
";  c #1A0500",
":  c #1E0600",
">  c #150A00",
",  c #120E0D",
"<  c #150C0D",
"1  c #120F18",
"2  c #131112",
"3  c #220000",
"4  c #240100",
"5  c #210400",
"6  c #250500",
"7  c #280000",
"8  c #2D0000",
"9  c #260900",
"0  c #2B0900",
"q  c #2F2F31",
"w  c #332F30",
"e  c #64605F",
"r  c #AE7856",
"t  c #AE7E56",
"y  c #A27C58",
"u  c #A27B5E",
"i  c #AF7859",
"p  c #A8795F",
"a  c #AC795E",
"s  c #AB7E5D",
"d  c #B17751",
"f  c #B67754",
"g  c #B67B53",
"h  c #B57955",
"j  c #B47A54",
"k  c #B07C54",
"l  c #BA7A54",
"z  c #BA7C57",
"x  c #B47758",
"c  c #B17958",
"v  c #B37858",
"b  c #B1785B",
"n  c #B47C59",
"m  c #B67B5D",
"M  c #B37C5E",
"N  c #B37E5E",
"B  c #B77F5E",
"V  c #BB7B58",
"C  c #B87E59",
"Z  c #B87D5D",
"A  c #9E7E67",
"S  c #987D6C",
"D  c #997F72",
"F  c #9A7F74",
"G  c #9D7F77",
"H  c #A57D63",
"J  c #A17B66",
"K  c #A77864",
"L  c #AA7B61",
"P  c #AA7A63",
"I  c #A97D62",
"U  c #AE7C61",
"Y  c #AA7B67",
"T  c #A87E65",
"R  c #AC7C65",
"E  c #AC7E67",
"W  c #A67B6A",
"Q  c #A67C6E",
"!  c #A87F6B",
"~  c #AA7A6E",
"^  c #AA7C6D",
"/  c #B17B61",
"(  c #B37B62",
")  c #B77E60",
"_  c #B47C63",
"`  c #B17D65",
"'  c #B67E65",
"]  c #B37F69",
"[  c #B67C68",
"{  c #A37F73",
"}  c #FFF200",
"|  c #AE805F",
" . c #AC855E",
".. c #9E846B",
"X. c #9D826F",
"o. c #9F836E",
"O. c #998175",
"+. c #9D8277",
"@. c #9C8178",
"#. c #9D867E",
"$. c #A28067",
"%. c #AC8063",
"&. c #A98265",
"*. c #AF8167",
"=. c #A68069",
"-. c #A4816B",
";. c #A3806C",
":. c #A3826F",
">. c #A1856F",
",. c #A98168",
"<. c #AA8068",
"1. c #A9836E",
"2. c #AD806D",
"3. c #A8846E",
"4. c #B28161",
"5. c #B28661",
"6. c #B38264",
"7. c #B48664",
"8. c #BB8563",
"9. c #B08268",
"0. c #A18270",
"q. c #A68171",
"w. c #A48370",
"e. c #A68772",
"r. c #A88170",
"t. c #AB8A77",
"y. c #A08478",
"u. c #B18471",
"i. c #B08670",
"p. c #988780",
"a. c #C4BEBE",
"s. c #BDC2BC",
"d. c #C2C4C1",
"f. c #C5C3C6",
"g. c #CAC1C2",
"h. c #C9C5C2",
"j. c #CCC6C6",
"k. c #C7C9C6",
"l. c #C9C4C8",
"z. c #C9C7CC",
"x. s None	c None",
/* pixels */
"x.x.x.x.x.x.x.x.x.x.x.x.x.x.x.x.x.x.x.x.x.x.x.x.x.x.x.x.x.x.",
"x.x.x.x.x.x.x.x.x.x.x.x.x.x.x.x.x.x.x.x.x.x.x.x.x.x.x.x.x.x.",
"x.x.e . x.x.x.x.x.x.x.x.x.x.x.x.x.x.x.x.x.x.x.x.x.x.x.    x.",
"x.w < j.  x.x.x.x.x.x.+ $ $ = % - = $ + x.x.x.x.x.x.  a.2 q ",
"x., g.a.l.  x.x.x.x.$ y.{ Q W 2.~ ,.! F * x.x.x.x.  d.d.z.1 ",
"x.x.. h.f.  x.x.x.x.= 3.K ] ' _ [ / 6.,.= x.x.x.x.# s.k.o x.",
"x.x.x.      x.x.x.@ >.&.4.i r n c C n H +.& x.x.x.X     x.x.",
"x.x.x.x.x.x.  x.x.$ $.| r C C j n j / H -.* x.x.  x.x.x.x.x.",
"x.x.x.x.x.x.x.  x.- E _ f l l g l j 4./ -.* x.O x.x.x.x.x.x.",
"x.x.x.x.x.x.x.x.% G Y b 8.d k n t 8.m a 1.F @ x.x.x.x.x.x.x.",
"x.x.x.x.x.x.x.x.+ = 1.9.|  .9 5 6 y k 7.Q = + x.x.x.x.x.x.x.",
"x.x.x.x.x.x.x.x.& O.4 ,.u - } } } 3 5.s 3 F @ x.x.x.x.x.x.x.",
"x.x.x.x.x.x.x.x.% @.r.7 i.9 } } } 3 ,.8 &.e.+ x.x.x.x.x.x.x.",
"x.x.x.x.x.x.x.x.$ @.r.u.4 -.* > > ..4 T %.A $ x.x.x.x.x.x.x.",
"x.x.x.x.x.x.x.x.. #.q.W 1.3 * + $ * 1.9.L X.+ x.x.x.x.x.x.x.",
"x.x.x.x.x.x.x.x.x.$ q.E E J = % = S ~ L 3.- x.x.x.x.x.x.x.x.",
"x.x.x.x.x.x.x.x.x.$ 3.L / / L &.,.E _ ` ! = x.x.x.x.x.x.x.x.",
"x.x.x.x.x.x.x.x.x.@ q.*.m m n 4.M B / L t.@ x.x.x.x.x.x.x.x.",
"x.x.x.x.x.x.x.x.x.x.% r.L m m b v _ U 3.= x.x.x.x.x.x.x.x.x.",
"x.x.x.x.x.x.x.x.x.x.x.% -.U m l m N Q - x.x.x.x.x.x.x.x.x.x.",
"x.x.x.x.x.x.x.x.x.x.x.+ X.T b V c *.X.$ x.x.x.x.x.x.x.x.x.x.",
"x.x.x.x.x.x.x.x.x.x.x.x.% -.B x / -.% x.x.x.x.x.x.x.x.x.x.x.",
"x.x.x.x.x.x.x.x.x.x.x.x.+ S 9./ ,.>.$ x.x.x.x.x.x.x.x.x.x.x.",
"x.x.x.x.x.x.x.x.x.x.x.x.x.% Q ,.:.% x.x.x.x.x.x.x.x.x.x.x.x.",
"x.x.x.x.x.x.x.x.x.x.x.x.x.x.= G $ x.x.x.x.x.x.x.x.x.x.x.x.x.",
"x.x.x.x.x.x.x.x.x.x.x.x.x.x.$ p.+ x.x.x.x.x.x.x.x.x.x.x.x.x.",
"x.x.x.x.x.x.x.x.x.x.x.x.x.x.x.. x.x.x.x.x.x.x.x.x.x.x.x.x.x.",
"x.x.x.x.x.x.x.x.x.x.x.x.x.x.x.x.x.x.x.x.x.x.x.x.x.x.x.x.x.x.",
"x.x.x.x.x.x.x.x.x.x.x.x.x.x.x.x.x.x.x.x.x.x.x.x.x.x.x.x.x.x.",
"x.x.x.x.x.x.x.x.x.x.x.x.x.x.x.x.x.x.x.x.x.x.x.x.x.x.x.x.x.x."
};
