/* XPM */
static char *explosao[] = {
/* columns rows colors chars-per-pixel */
"30 30 6 1 ",
"  c gray50",
". c #ED1C24",
"X c #FF7F27",
"o c #3F48CC",
"O c #C3C3C3",
"+ s None	c None",
/* pixels */
"+++++++++++++++++++++++++OOOOO",
"+++++++++++++++++++++++OOOOOOO",
"++++++++++++++++++++++OOOOOOOO",
"++++++++++++++++++++OOOOOOOOO+",
"++++++++++++++OOOOOOOOOO    O+",
"++++++++++++++OOOOOOOOO     ++",
"+++++OOOOOOOOOOOOOOOOO      ++",
"+++++OOOOOOOOOOOOOOOOO     O++",
"+++++OOOOOOOOOOOOOOOOO    OO++",
"+++++OOOOO     OO   OO   +++++",
"+++OOOOOOO          OOO+++++++",
"+++OOOOOOO          OOO+++++++",
"+++OOOOOOO          OOO+++++++",
"++++OOOOO          OOOO+++++++",
"++++OOOO      ++++++++++++++++",
"++OOOOOO     O++++++++++++++++",
"+OOOOOOO   OOO++++++++++++++++",
"OOOOOOOOOOO   ++++++++++++++++",
"OOOOOOOOOOO.  OOO+++++++++++++",
"OOOOOOOOOOO..  OOO++++++++++++",
"OOOOOOOOOOO ..   OOO++++++++++",
"++++OOOOOOO  ..   OOO+++++++++",
"++++++OOOOOOO ...  OO+++++++++",
"++++++OOOOOOOO ..   OOO+++++++",
"++++++OOOOXXXX...... OOOOOOOO+",
"++++OOOOOXX..X.... ..OOOOOOOO+",
"+++OOOOOOX..XX....  .....OOOO+",
"+OOOOOOOO..XX....  XX.ooo..OO+",
"OOOOOOO....XX..o.XXXXoooo..OO+",
"OOOOOOO....XX.oooXXXXoooo..OO+"
};
