/* XPM */
static char *rastro[] = {
/* columns rows colors chars-per-pixel */
"30 30 2 1 ",
"  s None	c None",
". c gray100",
/* pixels */
"                              ",
"                              ",
"                              ",
"                              ",
"                   ..         ",
"                ....          ",
"               ..             ",
"               .              ",
"               .              ",
"    .....     ..              ",
"   ..   ...  ..               ",
"   .       ...                ",
"   .                          ",
"   .                ..        ",
"                   ..         ",
"                  .           ",
"                  .        .. ",
"       ....       .      ...  ",
"       .  ..    ...      .    ",
"      .    ......       ..    ",
"      .                 .     ",
"      .                ..     ",
"     ..         ........      ",
"     .          .             ",
"     .                        ",
"     .                        ",
"                    ...  ..   ",
"                  ..   ...    ",
"                 ..           ",
"                              "
};
